<?xml version="1.0" encoding="UTF-8"?>
<svg xmlns="http://www.w3.org/2000/svg" height="512" viewBox="0 0 512 512" width="512" class="">
  <g>
    <g>
      <g>
        <path d="m496 184v8l-80 48v-104z" fill="rgba(122, 242, 255, 1)" data-original="#57A4FF" class=""></path>
        <path d="m96 136v104l-80-48v-8z" fill="rgba(122, 242, 255, 1)" data-original="#57A4FF" class=""></path>
        <g fill="none">
          <path d="m176 296-160 200"></path>
          <path d="m336 296 160 200"></path>
        </g>
      </g>
      <g fill="#004fac">
        <path d="m500.12 177.14-76.12-45.67v-115.47a8 8 0 0 0 -8-8h-320a8 8 0 0 0 -8 8v115.47l-76.12 45.67a8 8 0 0 0 -3.88 6.86v312a8 8 0 0 0 7.99 8h480.02a8 8 0 0 0 7.99-8v-312a8 8 0 0 0 -3.88-6.86zm-76.12-27.01 63.12 37.87-63.12 37.87zm-320-126.13h304v211.47l-152 91.2-152-91.2zm-16 126.13v75.74l-63.12-37.87zm-64 56 144.36 86.61-144.36 180.45zm8.65 281.87 149.55-186.95 69.68 41.81a8.015 8.015 0 0 0 8.24 0l69.68-41.81 149.55 186.95zm455.35-14.81-144.36-180.45 144.36-86.61z" data-original="#004FAC" class="active-path" data-old_color="#004FAC" style="fill:rgba(47, 156, 168, 1)"></path>
        <path d="m136 56h72a8 8 0 0 0 0-16h-72a8 8 0 0 0 0 16z" data-original="#004FAC" class="active-path" data-old_color="#004FAC" style="fill:rgba(127, 255, 212, 1)"></path>
        <path d="m232 56h8a8 8 0 0 0 0-16h-8a8 8 0 0 0 0 16z" data-original="#004FAC" class="active-path" data-old_color="#004FAC" style="fill:rgba(127, 255, 212, 1)"></path>
        <path d="m136 88h104a8 8 0 0 0 0-16h-104a8 8 0 0 0 0 16z" data-original="#004FAC" class="active-path" data-old_color="#004FAC" style="fill:rgba(127, 255, 212, 1)"></path>
        <path d="m408 464h-88a8 8 0 0 0 0 16h88a8 8 0 0 0 0-16z" data-original="#004FAC" class="active-path" data-old_color="#004FAC" style="fill:rgba(127, 255, 212, 1)"></path>
        <path d="m440 464h-8a8 8 0 0 0 0 16h8a8 8 0 0 0 0-16z" data-original="#004FAC" class="active-path" data-old_color="#004FAC" style="fill:rgba(127, 255, 212, 1)"></path>
      </g>
    </g>
  </g>
</svg>
