<svg width="467" height="446" viewBox="0 0 467 446" fill="none" xmlns="http://www.w3.org/2000/svg">
<rect width="467" height="446" fill="white"/>
<path d="M266.98 157.63C267.87 157.72 268.43 157.77 268.65 157.79C279.44 158.82 288.07 167.2 289.43 177.96M289.43 177.96C289.51 178.61 288.96 174.28 289.43 177.96ZM289.43 177.96C289.7 180.12 289.74 182.31 289.54 184.48C289.2 188.26 289.59 183.92 289.53 184.6C288.53 195.71 280.27 204.8 269.3 206.84M269.3 206.84C269.18 206.87 273.01 206.15 269.3 206.84ZM269.3 206.84C268.88 206.92 268.45 206.96 268.02 206.96C253.23 206.96 216.25 206.96 157.08 206.96C150.21 206.96 144.64 212.51 144.61 219.37C144.6 219.55 144.6 220 144.6 220.73L144 335.96H176.67V238.23L268.26 239.3C273.67 239.13 276.85 238.77 278.17 238.63C301.9 236.06 320.31 216.4 321.84 192.58C322 190.22 321.57 196.86 322.16 187.62C322.46 183.06 322.19 178.47 321.38 173.97C320.05 166.64 321.44 174.31 321.15 172.7C317.25 151.24 300.94 134.16 279.68 129.28C277.69 128.82 283.03 130.05 275.11 128.23C271.56 127.41 267.92 127 264.28 127C253.95 127 228.12 127 186.8 127V157.22L267.34 157.63" stroke="black"/>
<path d="M284.87 95.57C277.87 94.08 270.73 93.33 263.57 93.33C251.31 93.33 220.68 93.33 171.67 93.33V157.01H155.88C149.32 157.01 144 151.69 144 145.13C144 144.9 144 144.33 144 143.41V81.01C144 80.94 144 80.89 144 80.87C144 72.66 150.66 66 158.88 66C215.51 66 250.9 66 265.06 66C271.23 66 277.4 66.51 283.49 67.51M284.87 95.57C297.59 98.27 282.77 95.12 284.87 95.57ZM284.87 95.57C322.52 103.56 350.36 135.48 353.16 173.87C353.23 174.91 353.42 177.51 353.73 181.67C353.73 183.18 353.73 184.13 353.73 184.51C353.73 224.83 325.84 259.8 286.52 268.76C285.41 269.02 286.09 268.9 281.67 269.91C281.22 269.99 279.67 270.41 277.37 270.8C274.909 271.217 273.31 271.33 271.26 271.33C262.83 271.33 241.77 271.33 208.06 271.33V346.46H157H144V360.81C144 367.73 149.61 373.33 156.53 373.33C156.68 373.33 157.06 373.33 157.68 373.33H223.28C229.38 373.33 234.34 368.38 234.34 362.27C234.34 362.03 234.34 361.4 234.34 360.41V297L274.8 296.98C324.21 292.27 365.17 256.71 376.76 208.45C379.08 198.76 373.3 222.82 377.28 206.25C384.36 176.79 378.71 145.71 361.72 120.62C355.59 111.56 364.15 124.2 358.09 115.25C340.83 89.77 313.86 72.5 283.49 67.51M283.49 67.51C281.66 67.21 293 69.07 283.49 67.51Z" stroke="black"/>
</svg>
