<svg width="116" height="100" viewBox="0 0 116 100" fill="none" xmlns="http://www.w3.org/2000/svg">
<path d="M78 22.5001C81 25.5 84.07 33.74 83 39C82.53 35.32 83.08 39.65 83 39C83.27 41.16 82.74 42.3101 82.54 44.4801C82.2 48.2601 82.59 43.9201 82.53 44.6001C81.53 55.7101 73.27 64.8002 62.3 66.8402C66.01 66.1502 62.18 66.8702 62.3 66.8402C61.88 66.9202 61.45 66.9602 61.02 66.9602C46.23 66.9602 60.17 66.9602 1 66.9602V75.5V99.3002H61.26C66.67 99.1302 69.85 98.7702 71.17 98.6302C94.9 96.0602 113.31 76.4002 114.84 52.5802C115 50.2202 114.57 56.8601 115.16 47.6201C115.46 43.0601 115.19 38.4701 114.38 33.9701C113.05 26.6401 114.44 34.3101 114.15 32.7001C112 16.5 105.5 8.5 97.9055 1.00006L78 22.5001Z" fill="#7FFFD4"/>
<path d="M83 39C84.07 33.74 81 25.5 78 22.5001L97.9055 1.00006C105.5 8.5 112 16.5 114.15 32.7001C114.44 34.3101 113.05 26.6401 114.38 33.9701C115.19 38.4701 115.46 43.0601 115.16 47.6201C114.57 56.8601 115 50.2202 114.84 52.5802C113.31 76.4002 94.9 96.0602 71.17 98.6302C69.85 98.7702 66.67 99.1302 61.26 99.3002H1V75.5V66.9602C60.17 66.9602 46.23 66.9602 61.02 66.9602C61.45 66.9602 61.88 66.9202 62.3 66.8402M83 39C83.08 39.65 82.53 35.32 83 39ZM83 39C83.27 41.16 82.74 42.3101 82.54 44.4801C82.2 48.2601 82.59 43.9201 82.53 44.6001C81.53 55.7101 73.27 64.8002 62.3 66.8402M62.3 66.8402C62.18 66.8702 66.01 66.1502 62.3 66.8402Z" stroke="black"/>
</svg>
