<svg width="238" height="309" viewBox="0 0 238 309" fill="none" xmlns="http://www.w3.org/2000/svg">
<path d="M15.88 1C7.66 1 1 7.66001 1 15.87C1 15.89 1 15.94 1 16.01V78.41C1 79.33 1 208 1 211.5C1 218.5 7.67999 226.5 14.68 226.5H28.67V28.33C77.68 28.33 108.31 28.33 120.57 28.33C127.73 28.33 134.87 29.08 141.87 30.57C139.77 30.12 154.59 33.27 141.87 30.57C179.52 38.56 207.36 70.48 210.16 108.87C210.23 109.91 210.42 112.51 210.73 116.67C210.73 118.18 210.73 119.13 210.73 119.51C210.73 159.83 182.84 194.8 143.52 203.76C142.41 204.02 143.09 203.9 138.67 204.91C138.22 204.99 136.67 205.41 134.37 205.8C131.909 206.217 130.31 206.33 128.26 206.33C119.83 206.33 98.77 206.33 65.06 206.33V281.46H14H1V295.81C1 302.73 6.61 308.33 13.53 308.33C13.68 308.33 14.06 308.33 14.68 308.33H80.28C86.38 308.33 91.34 303.38 91.34 297.27C91.34 297.03 91.34 296.4 91.34 295.41V232L131.8 231.98C181.21 227.27 222.17 191.71 233.76 143.45C236.08 133.76 230.3 157.82 234.28 141.25C241.36 111.79 235.71 80.71 218.72 55.62C212.59 46.56 221.15 59.2 215.09 50.25C197.83 24.77 170.86 7.50001 140.49 2.51001C150 4.07001 138.66 2.21001 140.49 2.51001C134.4 1.51001 128.23 1 122.06 1C107.9 1 72.51 1 15.88 1Z" fill="#39A7B3"/>
<path d="M141.87 30.57C134.87 29.08 127.73 28.33 120.57 28.33C108.31 28.33 77.68 28.33 28.67 28.33V226.5H14.68C7.67999 226.5 1 218.5 1 211.5C1 208 1 79.33 1 78.41V16.01C1 15.94 1 15.89 1 15.87C1 7.66001 7.66 1 15.88 1C72.51 1 107.9 1 122.06 1C128.23 1 134.4 1.51001 140.49 2.51001M141.87 30.57C154.59 33.27 139.77 30.12 141.87 30.57ZM141.87 30.57C179.52 38.56 207.36 70.48 210.16 108.87C210.23 109.91 210.42 112.51 210.73 116.67C210.73 118.18 210.73 119.13 210.73 119.51C210.73 159.83 182.84 194.8 143.52 203.76C142.41 204.02 143.09 203.9 138.67 204.91C138.22 204.99 136.67 205.41 134.37 205.8C131.909 206.217 130.31 206.33 128.26 206.33C119.83 206.33 98.77 206.33 65.06 206.33V281.46H14H1V295.81C1 302.73 6.61 308.33 13.53 308.33C13.68 308.33 14.06 308.33 14.68 308.33H80.28C86.38 308.33 91.34 303.38 91.34 297.27C91.34 297.03 91.34 296.4 91.34 295.41V232L131.8 231.98C181.21 227.27 222.17 191.71 233.76 143.45C236.08 133.76 230.3 157.82 234.28 141.25C241.36 111.79 235.71 80.71 218.72 55.62C212.59 46.56 221.15 59.2 215.09 50.25C197.83 24.77 170.86 7.50001 140.49 2.51001M140.49 2.51001C138.66 2.21001 150 4.07001 140.49 2.51001Z" stroke="black"/>
</svg>
